<?xml version="1.0" encoding="UTF-8"?>
<svg id="Layer_1" data-name="Layer 1" xmlns="http://www.w3.org/2000/svg" viewBox="0 0 995 681">
  <defs>
    <style>
      .cls-1 {
        fill: #fff;
        fill-rule: evenodd;
      }
    </style>
  </defs>
  <path class="cls-1" d="M0,1l1,680,142-1v-17h-67l-9-2-9-7-5-18V32l5-9,16-5,140,1,19,4,4,2,6,8-3,395-2,44-7,19-8,8-7,4-19,5-31,2,1,13,174-1v-12l-39-2-14-3-11-5-10-10-6-17-2-44V59l3-2,228,460L709,59l3-2,2,2-1,422-4,12-8,8-24,7-37,2v13l218-1v-12l-38-2-24-7-8-8-4-12-1-445,1-6,5-5,10-4,12-2,109-1,16,5,5,10-1,609-5,13-11,7-72,1v18l143-1L994,0h-267l-10,2-203,424-13-24L307,0,0,1Z"/>
</svg>