<?xml version="1.0" encoding="UTF-8"?>
<svg id="Layer_1" xmlns="http://www.w3.org/2000/svg" version="1.1" viewBox="0 0 121.4 78.9">
  <!-- Generator: Adobe Illustrator 30.6.0, SVG Export Plug-In . SVG Version: 2.1.4 Build 109)  -->
  <defs>
    <style>
      .st0 {
        fill: #d40000;
      }

      .st1 {
        fill: #002b7f;
      }

      .st2 {
        fill: #d9d9d9;
      }
    </style>
  </defs>
  <polygon class="st2" points="60.7 0 66.6 17.9 85.4 17.9 70.1 29 76 46.9 60.7 35.8 45.4 46.9 51.3 29 36 17.9 54.8 17.9 60.7 0"/>
  <polygon class="st0" points="24.7 32 30.6 49.9 49.4 49.9 34.1 61 40 78.9 24.7 67.8 9.4 78.9 15.3 61 0 49.9 18.8 49.9 24.7 32"/>
  <polygon class="st1" points="96.7 32 102.6 49.9 121.4 49.9 106.1 61 112 78.9 96.7 67.8 81.4 78.9 87.3 61 72 49.9 90.8 49.9 96.7 32"/>
</svg>